<svg xmlns="http://www.w3.org/2000/svg" version="1.1" xmlns:xlink="http://www.w3.org/1999/xlink" width="736.57" height="736.57"><svg xmlns="http://www.w3.org/2000/svg" version="1.1" xmlns:xlink="http://www.w3.org/1999/xlink" width="736.57" height="736.57"><svg xmlns="http://www.w3.org/2000/svg" xmlns:xlink="http://www.w3.org/1999/xlink" id="Layer_1" x="0px" y="0px" viewBox="0 0 736.57 736.57" style="enable-background:new 0 0 736.57 736.57;" xml:space="preserve"><style type="text/css">	.st0{fill:#283D3D;}	.st1{fill:#FFFFFF;}	.st2{fill:#283D3D;stroke:#283D3D;stroke-width:5;stroke-miterlimit:10;}	.st3{fill:#5CAB9B;}	.st4{clip-path:url(#SVGID_2_);}	.st5{fill:none;}	.st6{fill:none;stroke:#5CAB9B;stroke-width:0;stroke-linecap:round;stroke-linejoin:round;}	.st7{fill:#010202;}</style><path class="st3" d="M368.28,736.57L368.28,736.57C164.89,736.57,0,571.68,0,368.28v0C0,164.89,164.89,0,368.28,0h0  c203.4,0,368.28,164.89,368.28,368.28v0C736.57,571.68,571.68,736.57,368.28,736.57z"></path><g>	<g>		<g>			<path class="st1" d="M422.16,372.48c6.64,0.84,13.91-2.07,21.82-8.73c7.89-6.64,15.37-14.13,22.45-22.45     c7.05-8.3,13.72-16,19.95-23.07c6.23-7.05,11.42-10.6,15.59-10.6c21.61-1.66,34.7,2.09,39.28,11.22     c4.56,9.16,3.12,23.28-4.36,42.4c-8.32,18.3-21,33.26-38.03,44.89c-17.05,11.65-35.54,19.76-55.49,24.32     c-19.95,4.58-40.33,4.99-61.1,1.25c-20.79-3.74-39.09-11.85-54.87-24.32c-5.83-4.15-13.09-9.76-21.82-16.83     c-8.73-7.05-16.02-13.09-21.82-18.08c-15.8,14.96-30.98,23.69-45.51,26.19c-14.55,2.49-29.73-7.05-45.51-28.68     c27.43-48.2,59.64-70.65,96.64-67.34C326.34,305.98,370.61,329.26,422.16,372.48z"></path>		</g>	</g>	<g>		<g>			<path class="st1" d="M422.16,222.58c6.64,0.84,13.91-2.07,21.82-8.73c7.89-6.64,15.37-14.13,22.45-22.45     c7.05-8.3,13.72-16,19.95-23.07c6.23-7.05,11.42-10.6,15.59-10.6c21.61-1.66,34.7,2.09,39.28,11.22     c4.56,9.16,3.12,23.28-4.36,42.4c-8.32,18.29-21,33.26-38.03,44.89c-17.05,11.65-35.54,19.76-55.49,24.32     c-19.95,4.58-40.33,4.99-61.1,1.25c-20.79-3.74-39.09-11.85-54.87-24.32c-5.83-4.15-13.09-9.76-21.82-16.83     c-8.73-7.05-16.02-13.09-21.82-18.08c-15.8,14.96-30.98,23.69-45.51,26.19c-14.55,2.49-29.73-7.05-45.51-28.68     c27.43-48.2,59.64-70.65,96.64-67.34C326.34,156.08,370.61,179.37,422.16,222.58z"></path>		</g>	</g>	<g>		<g>			<path class="st1" d="M422.16,522.38c6.64,0.84,13.91-2.07,21.82-8.73c7.89-6.64,15.37-14.13,22.45-22.45     c7.05-8.3,13.72-16,19.95-23.07c6.23-7.05,11.42-10.6,15.59-10.6c21.61-1.66,34.7,2.09,39.28,11.22     c4.56,9.16,3.12,23.28-4.36,42.4c-8.32,18.3-21,33.26-38.03,44.89c-17.05,11.65-35.54,19.76-55.49,24.32     c-19.95,4.58-40.33,4.99-61.1,1.25c-20.79-3.74-39.09-11.85-54.87-24.32c-5.83-4.15-13.09-9.76-21.82-16.83     c-8.73-7.05-16.02-13.09-21.82-18.08c-15.8,14.96-30.98,23.69-45.51,26.19c-14.55,2.49-29.73-7.05-45.51-28.68     c27.43-48.2,59.64-70.65,96.64-67.34C326.34,455.88,370.61,479.16,422.16,522.38z"></path>		</g>	</g></g></svg></svg><style>@media (prefers-color-scheme: light) { :root { filter: none; } }
@media (prefers-color-scheme: dark) { :root { filter: none; } }
</style></svg>